<?xml version="1.0" encoding="UTF-8"?>
<svg id="Layer_1" data-name="Layer 1" xmlns="http://www.w3.org/2000/svg" viewBox="0 0 1016.12 893.46">
  <defs>
    <style>
      .cls-1 {
        fill: #fff;
        stroke-width: 0px;
      }
    </style>
  </defs>
  <path class="cls-1" d="m0,893.46h1016.12V0L0,.64v892.82Zm564.86-310.56l95.21,37.3c0,29.88,5.84,51.93,17.59,66.09,11.73,13.96,31.58,21.02,59.72,21.02h45.99V198.07h-45.99c-29.43,0-49.59,7.59-60.67,22.5-11.11,15.05-16.64,36.24-16.64,63.66l-95.21,37.55v-34.96c0-55.84,14.8-99.4,44.28-130.64,29.48-31.13,72.31-46.63,128.1-46.63h145.33v686.1h-136.67c-58.44,0-103.2-15.36-134.33-45.76-31.13-30.55-46.71-77.95-46.71-142.2,0,0,0-24.79,0-24.79ZM133.49,110.09h145.38c55.84,0,98.5,15.64,127.99,46.68,29.48,31.19,44.28,74.72,44.28,130.53v79.29l-95.27,37.55v-119.42c0-27.45-5.44-48.58-16.56-63.69-11.11-14.91-31.3-22.5-60.67-22.5h-45.99v508.88h45.99c28.06,0,48-7.06,59.75-21.02,11.73-14.16,17.48-36.13,17.48-66.03v-119.36l95.27,37.36v69.61c0,64.16-15.5,111.54-46.68,142.12-31.13,30.35-75.89,45.73-134.33,45.73h-136.62V110.09h-.03Z"/>
</svg>